<svg width="128" height="128" viewBox="0 0 128 128" fill="none" xmlns="http://www.w3.org/2000/svg">
<path d="M0 102H128V120C128 124.418 124.418 128 120 128H8C3.58172 128 0 124.418 0 120V102Z" fill="url(#paint0_linear_0_1)"/>
<path d="M0 8C0 3.58172 3.58172 0 8 0H120C124.418 0 128 3.58172 128 8V102H0V8Z" fill="url(#paint1_linear_0_1)"/>
<path d="M42.245 27.3672H34.468C34.326 26.361 34.036 25.4673 33.598 24.6861C33.16 23.893 32.5978 23.2183 31.9112 22.6619C31.2247 22.1056 30.4316 21.6794 29.532 21.3835C28.6442 21.0876 27.6795 20.9396 26.6378 20.9396C24.7557 20.9396 23.1162 21.4072 21.7195 22.3423C20.3227 23.2656 19.2396 24.6151 18.4702 26.3906C17.7008 28.1544 17.3161 30.2969 17.3161 32.8182C17.3161 35.4105 17.7008 37.5885 18.4702 39.3523C19.2514 41.116 20.3404 42.4477 21.7372 43.3473C23.134 44.2469 24.7498 44.6967 26.5845 44.6967C27.6143 44.6967 28.5672 44.5606 29.4432 44.2884C30.331 44.0161 31.1181 43.6196 31.8047 43.0987C32.4912 42.5661 33.0594 41.9209 33.5092 41.1634C33.9709 40.4058 34.2905 39.5417 34.468 38.571L42.245 38.6065C42.0438 40.2756 41.5407 41.8854 40.7358 43.4361C39.9427 44.9749 38.8714 46.3539 37.522 47.5732C36.1844 48.7805 34.5864 49.7393 32.728 50.4496C30.8814 51.148 28.7921 51.4972 26.4602 51.4972C23.2169 51.4972 20.3168 50.7633 17.7599 49.2955C15.215 47.8277 13.2027 45.7029 11.723 42.9212C10.2552 40.1394 9.52131 36.7718 9.52131 32.8182C9.52131 28.8527 10.267 25.4792 11.7585 22.6974C13.25 19.9157 15.2741 17.7969 17.831 16.3409C20.3878 14.8731 23.2642 14.1392 26.4602 14.1392C28.5672 14.1392 30.5204 14.4351 32.3196 15.027C34.1307 15.6188 35.7346 16.483 37.1314 17.6193C38.5282 18.7438 39.6645 20.1229 40.5405 21.7564C41.4283 23.3899 41.9964 25.2602 42.245 27.3672ZM58.4116 45.4602V20.3182H64.7681V45.4602H58.4116ZM49.0188 36.0675V29.7109H74.1609V36.0675H49.0188ZM92.396 45.4602V20.3182H98.7525V45.4602H92.396ZM83.0032 36.0675V29.7109H108.145V36.0675H83.0032Z" fill="white"/>
<path d="M94.4219 102.818V100.517C94.4219 98.7699 94.7912 97.1648 95.5298 95.7017C96.2827 94.2244 97.3693 93.0455 98.7898 92.1648C100.224 91.2699 101.972 90.8224 104.031 90.8224C106.119 90.8224 107.874 91.2628 109.294 92.1435C110.729 93.0241 111.808 94.2031 112.533 95.6804C113.271 97.1435 113.641 98.7557 113.641 100.517V102.818C113.641 104.565 113.271 106.178 112.533 107.655C111.794 109.118 110.707 110.29 109.273 111.17C107.838 112.065 106.091 112.513 104.031 112.513C101.943 112.513 100.189 112.065 98.7685 111.17C97.348 110.29 96.2685 109.118 95.5298 107.655C94.7912 106.178 94.4219 104.565 94.4219 102.818ZM100.622 100.517V102.818C100.622 103.827 100.864 104.778 101.347 105.673C101.844 106.568 102.739 107.016 104.031 107.016C105.324 107.016 106.205 106.575 106.673 105.695C107.156 104.814 107.398 103.855 107.398 102.818V100.517C107.398 99.4801 107.17 98.5142 106.716 97.6193C106.261 96.7244 105.366 96.277 104.031 96.277C102.753 96.277 101.865 96.7244 101.368 97.6193C100.871 98.5142 100.622 99.4801 100.622 100.517ZM72.0284 77.8466V75.5455C72.0284 73.7841 72.4048 72.1719 73.1577 70.7088C73.9105 69.2315 74.9972 68.0526 76.4176 67.1719C77.8523 66.2912 79.5852 65.8509 81.6165 65.8509C83.7188 65.8509 85.4801 66.2912 86.9006 67.1719C88.321 68.0526 89.4006 69.2315 90.1392 70.7088C90.8778 72.1719 91.2472 73.7841 91.2472 75.5455V77.8466C91.2472 79.608 90.8707 81.2202 90.1179 82.6832C89.3793 84.1463 88.2926 85.3182 86.858 86.1989C85.4375 87.0653 83.6903 87.4986 81.6165 87.4986C79.5426 87.4986 77.7884 87.0582 76.3537 86.1776C74.9332 85.2827 73.8537 84.1108 73.1151 82.6619C72.3906 81.1989 72.0284 79.5937 72.0284 77.8466ZM78.2713 75.5455V77.8466C78.2713 78.8835 78.5128 79.8423 78.9957 80.723C79.4929 81.6037 80.3665 82.044 81.6165 82.044C82.9233 82.044 83.8111 81.6037 84.2798 80.723C84.7628 79.8423 85.0043 78.8835 85.0043 77.8466V75.5455C85.0043 74.5085 84.777 73.5426 84.3224 72.6477C83.8679 71.7528 82.9659 71.3054 81.6165 71.3054C80.3523 71.3054 79.4787 71.7599 78.9957 72.669C78.5128 73.5781 78.2713 74.5369 78.2713 75.5455ZM74.8409 111L104.841 67.3636H110.423L80.4233 111H74.8409Z" fill="white"/>
<defs>
<linearGradient id="paint0_linear_0_1" x1="0" y1="115" x2="128" y2="115" gradientUnits="userSpaceOnUse">
<stop stop-color="#FF0000"/>
<stop offset="1" stop-color="#9F0000"/>
</linearGradient>
<linearGradient id="paint1_linear_0_1" x1="0" y1="51" x2="128" y2="51" gradientUnits="userSpaceOnUse">
<stop stop-color="#00FF11"/>
<stop offset="1" stop-color="#00990A"/>
</linearGradient>
</defs>
</svg>
