<svg width="80" height="80" viewBox="0 0 80 80" fill="none" xmlns="http://www.w3.org/2000/svg">
<rect width="80" height="80" rx="8" fill="#D9D9D9"/>
<path d="M0 64H80V72C80 76.4183 76.4183 80 72 80H8C3.58172 80 0 76.4183 0 72V64Z" fill="url(#paint0_linear_0_1)"/>
<path d="M0 8C0 3.58172 3.58172 0 8 0H72C76.4183 0 80 3.58172 80 8V64H0V8Z" fill="url(#paint1_linear_0_1)"/>
<path d="M29.147 20.8203H24.4808C24.3956 20.2166 24.2216 19.6804 23.9588 19.2116C23.696 18.7358 23.3587 18.331 22.9467 17.9972C22.5348 17.6634 22.0589 17.4077 21.5192 17.2301C20.9865 17.0526 20.4077 16.9638 19.7827 16.9638C18.6534 16.9638 17.6697 17.2443 16.8317 17.8054C15.9936 18.3594 15.3438 19.169 14.8821 20.2344C14.4205 21.2926 14.1896 22.5781 14.1896 24.0909C14.1896 25.6463 14.4205 26.9531 14.8821 28.0114C15.3509 29.0696 16.0043 29.8686 16.8423 30.4084C17.6804 30.9482 18.6499 31.218 19.7507 31.218C20.3686 31.218 20.9403 31.1364 21.4659 30.973C21.9986 30.8097 22.4709 30.5717 22.8828 30.2592C23.2947 29.9396 23.6357 29.5526 23.9055 29.098C24.1825 28.6435 24.3743 28.125 24.4808 27.5426L29.147 27.5639C29.0263 28.5653 28.7244 29.5312 28.2415 30.4616C27.7656 31.3849 27.1229 32.2124 26.3132 32.9439C25.5107 33.6683 24.5518 34.2436 23.4368 34.6697C22.3288 35.0888 21.0753 35.2983 19.6761 35.2983C17.7301 35.2983 15.9901 34.858 14.456 33.9773C12.929 33.0966 11.7216 31.8217 10.8338 30.1527C9.95312 28.4837 9.51278 26.4631 9.51278 24.0909C9.51278 21.7116 9.96023 19.6875 10.8551 18.0185C11.75 16.3494 12.9645 15.0781 14.4986 14.2045C16.0327 13.3239 17.7585 12.8835 19.6761 12.8835C20.9403 12.8835 22.1122 13.0611 23.1918 13.4162C24.2784 13.7713 25.2408 14.2898 26.0788 14.9716C26.9169 15.6463 27.5987 16.4737 28.1243 17.4538C28.657 18.4339 28.9979 19.5561 29.147 20.8203ZM38.8469 31.6761V16.5909H42.6609V31.6761H38.8469ZM33.2113 26.0405V22.2266H48.2965V26.0405H33.2113ZM59.2376 31.6761V16.5909H63.0515V31.6761H59.2376ZM53.6019 26.0405V22.2266H68.6871V26.0405H53.6019Z" fill="white"/>
<path d="M58.7109 64.9091V63.7585C58.7109 62.8849 58.8956 62.0824 59.2649 61.3509C59.6413 60.6122 60.1847 60.0227 60.8949 59.5824C61.6122 59.1349 62.4858 58.9112 63.5156 58.9112C64.5597 58.9112 65.4368 59.1314 66.147 59.5717C66.8643 60.0121 67.4041 60.6016 67.7663 61.3402C68.1357 62.0717 68.3203 62.8778 68.3203 63.7585V64.9091C68.3203 65.7827 68.1357 66.5888 67.7663 67.3274C67.397 68.0589 66.8537 68.6449 66.1364 69.0852C65.419 69.5327 64.5455 69.7564 63.5156 69.7564C62.4716 69.7564 61.5945 69.5327 60.8842 69.0852C60.174 68.6449 59.6342 68.0589 59.2649 67.3274C58.8956 66.5888 58.7109 65.7827 58.7109 64.9091ZM61.8111 63.7585V64.9091C61.8111 65.4134 61.9318 65.8892 62.1733 66.3366C62.4219 66.7841 62.8693 67.0078 63.5156 67.0078C64.1619 67.0078 64.6023 66.7876 64.8366 66.3473C65.0781 65.907 65.1989 65.4276 65.1989 64.9091V63.7585C65.1989 63.2401 65.0852 62.7571 64.858 62.3097C64.6307 61.8622 64.1832 61.6385 63.5156 61.6385C62.8764 61.6385 62.4325 61.8622 62.1839 62.3097C61.9354 62.7571 61.8111 63.2401 61.8111 63.7585ZM47.5142 52.4233V51.2727C47.5142 50.392 47.7024 49.5859 48.0788 48.8544C48.4553 48.1158 48.9986 47.5263 49.7088 47.0859C50.4261 46.6456 51.2926 46.4254 52.3082 46.4254C53.3594 46.4254 54.2401 46.6456 54.9503 47.0859C55.6605 47.5263 56.2003 48.1158 56.5696 48.8544C56.9389 49.5859 57.1236 50.392 57.1236 51.2727V52.4233C57.1236 53.304 56.9354 54.1101 56.5589 54.8416C56.1896 55.5732 55.6463 56.1591 54.929 56.5994C54.2188 57.0327 53.3452 57.2493 52.3082 57.2493C51.2713 57.2493 50.3942 57.0291 49.6768 56.5888C48.9666 56.1413 48.4268 55.5554 48.0575 54.831C47.6953 54.0994 47.5142 53.2969 47.5142 52.4233ZM50.6357 51.2727V52.4233C50.6357 52.9418 50.7564 53.4212 50.9979 53.8615C51.2464 54.3018 51.6832 54.522 52.3082 54.522C52.9616 54.522 53.4055 54.3018 53.6399 53.8615C53.8814 53.4212 54.0021 52.9418 54.0021 52.4233V51.2727C54.0021 50.7543 53.8885 50.2713 53.6612 49.8239C53.4339 49.3764 52.983 49.1527 52.3082 49.1527C51.6761 49.1527 51.2393 49.38 50.9979 49.8345C50.7564 50.2891 50.6357 50.7685 50.6357 51.2727ZM48.9205 69L63.9205 47.1818H66.7116L51.7116 69H48.9205Z" fill="white"/>
<defs>
<linearGradient id="paint0_linear_0_1" x1="0" y1="72" x2="80" y2="72" gradientUnits="userSpaceOnUse">
<stop stop-color="#FF0000"/>
<stop offset="1" stop-color="#9F0000"/>
</linearGradient>
<linearGradient id="paint1_linear_0_1" x1="0" y1="32" x2="80" y2="32" gradientUnits="userSpaceOnUse">
<stop stop-color="#00FF11"/>
<stop offset="1" stop-color="#00990A"/>
</linearGradient>
</defs>
</svg>
